<mxfile host="app.diagrams.net" agent="Mozilla/5.0 (Macintosh; Intel Mac OS X 10_15_7) AppleWebKit/605.1.15 (KHTML, like Gecko) Version/18.1.1 Safari/605.1.15" version="25.0.3">
  <diagram id="C5RBs43oDa-KdzZeNtuy" name="Page-1">
    <mxGraphModel grid="1" page="1" gridSize="10" guides="1" tooltips="1" connect="1" arrows="1" fold="1" pageScale="1" pageWidth="827" pageHeight="1169" math="0" shadow="0">
      <root>
        <mxCell id="WIyWlLk6GJQsqaUBKTNV-0" />
        <mxCell id="WIyWlLk6GJQsqaUBKTNV-1" parent="WIyWlLk6GJQsqaUBKTNV-0" />
        <mxCell id="l4S7q1OCt5ux5UeJ87Dz-60" style="edgeStyle=orthogonalEdgeStyle;rounded=0;orthogonalLoop=1;jettySize=auto;html=1;entryX=1.016;entryY=0.068;entryDx=0;entryDy=0;entryPerimeter=0;" edge="1" parent="WIyWlLk6GJQsqaUBKTNV-1" source="39F5YlfIFEwG8_Svd10A-15" target="39F5YlfIFEwG8_Svd10A-20">
          <mxGeometry relative="1" as="geometry">
            <mxPoint x="835" y="-200" as="targetPoint" />
          </mxGeometry>
        </mxCell>
        <mxCell id="39F5YlfIFEwG8_Svd10A-15" value="Game Manager Controller" style="swimlane;fontStyle=1;align=center;verticalAlign=top;childLayout=stackLayout;horizontal=1;startSize=26;horizontalStack=0;resizeParent=1;resizeParentMax=0;resizeLast=0;collapsible=1;marginBottom=0;whiteSpace=wrap;html=1;" vertex="1" parent="WIyWlLk6GJQsqaUBKTNV-1">
          <mxGeometry x="670" y="-120" width="390" height="310" as="geometry">
            <mxRectangle x="710" y="200" width="180" height="30" as="alternateBounds" />
          </mxGeometry>
        </mxCell>
        <mxCell id="39F5YlfIFEwG8_Svd10A-16" value="- stage: Stage&lt;div&gt;- loginManager: Login Manager&lt;/div&gt;&lt;div&gt;- toolbar: ToolbarUI&lt;/div&gt;&lt;div&gt;- highScoresManager: HighScoresManager&lt;/div&gt;&lt;div&gt;+ username: String( static)&lt;/div&gt;" style="text;strokeColor=none;fillColor=none;align=left;verticalAlign=top;spacingLeft=4;spacingRight=4;overflow=hidden;rotatable=0;points=[[0,0.5],[1,0.5]];portConstraint=eastwest;whiteSpace=wrap;html=1;" vertex="1" parent="39F5YlfIFEwG8_Svd10A-15">
          <mxGeometry y="26" width="390" height="84" as="geometry" />
        </mxCell>
        <mxCell id="39F5YlfIFEwG8_Svd10A-17" value="" style="line;strokeWidth=1;fillColor=none;align=left;verticalAlign=middle;spacingTop=-1;spacingLeft=3;spacingRight=3;rotatable=0;labelPosition=right;points=[];portConstraint=eastwest;strokeColor=inherit;" vertex="1" parent="39F5YlfIFEwG8_Svd10A-15">
          <mxGeometry y="110" width="390" height="8" as="geometry" />
        </mxCell>
        <mxCell id="39F5YlfIFEwG8_Svd10A-18" value="&lt;span data-lucid-content=&quot;{&amp;quot;t&amp;quot;:&amp;quot;+ GameManagerController( stage: Stage): void\n+ getStage() : Stage\n+ handleLogin( username, password: String) : void\n+ handleCreateAccount( username, password: String): void\n+ showMainMenu(stage: Stage): void\n- createHighScoreBox( stage: Stage): VBox\n- createMenuTitle( stage: Stage) : Label\n- createMainContent( stage: Stage): HBox\n- createGameOptionsBox( stage: Stage): GridPane\n- setGameAction( playBlackjackButton, playSnakeButton: Button): void\n+ showAlert( title: String, message: String): void\n+ showLoginPage( stage: Stage) : void&amp;quot;,&amp;quot;m&amp;quot;:[{&amp;quot;s&amp;quot;:0,&amp;quot;n&amp;quot;:&amp;quot;fsp&amp;quot;,&amp;quot;v&amp;quot;:&amp;quot;ss_presetShapeStyle1_textStyle&amp;quot;,&amp;quot;e&amp;quot;:537},{&amp;quot;s&amp;quot;:0,&amp;quot;n&amp;quot;:&amp;quot;fsp2&amp;quot;,&amp;quot;v&amp;quot;:&amp;quot;ss_presetShapeStyle1_textStyle&amp;quot;,&amp;quot;e&amp;quot;:537},{&amp;quot;s&amp;quot;:0,&amp;quot;n&amp;quot;:&amp;quot;s&amp;quot;,&amp;quot;v&amp;quot;:22.22222222222222,&amp;quot;e&amp;quot;:537}]}&quot; data-lucid-type=&quot;application/vnd.lucid.text&quot;&gt;&lt;font style=&quot;font-size: 12px;&quot;&gt;+ GameManagerController( stage: Stage): void&lt;br&gt;+ getStage() : Stage&lt;br&gt;+ handleLogin( username, password: String) : void&lt;br&gt;+ handleCreateAccount( username, password: String): void&lt;br&gt;+ showMainMenu(stage: Stage): void&lt;br&gt;- createHighScoreBox( stage: Stage): VBox&lt;br&gt;- createMenuTitle( stage: Stage) : Label&lt;br&gt;- createMainContent( stage: Stage): HBox&lt;br&gt;- createGameOptionsBox( stage: Stage): GridPane&lt;br&gt;- setGameAction( playBlackjackButton, playSnakeButton: Button): void&lt;br&gt;+ showAlert( title: String, message: String): void&lt;br&gt;+ showLoginPage( stage: Stage) : void&lt;/font&gt;&lt;/span&gt;" style="text;strokeColor=none;fillColor=none;align=left;verticalAlign=top;spacingLeft=4;spacingRight=4;overflow=hidden;rotatable=0;points=[[0,0.5],[1,0.5]];portConstraint=eastwest;whiteSpace=wrap;html=1;" vertex="1" parent="39F5YlfIFEwG8_Svd10A-15">
          <mxGeometry y="118" width="390" height="192" as="geometry" />
        </mxCell>
        <mxCell id="39F5YlfIFEwG8_Svd10A-19" value="&lt;b&gt;Game Manager&lt;/b&gt;" style="swimlane;fontStyle=0;childLayout=stackLayout;horizontal=1;startSize=26;fillColor=none;horizontalStack=0;resizeParent=1;resizeParentMax=0;resizeLast=0;collapsible=1;marginBottom=0;whiteSpace=wrap;html=1;" vertex="1" parent="WIyWlLk6GJQsqaUBKTNV-1">
          <mxGeometry x="280" y="-190" width="190" height="70" as="geometry">
            <mxRectangle x="284" y="110" width="130" height="30" as="alternateBounds" />
          </mxGeometry>
        </mxCell>
        <mxCell id="39F5YlfIFEwG8_Svd10A-20" value="+ start ( mainStage: Stage) : void&lt;div&gt;+ main ( args: String[]): void&lt;/div&gt;" style="text;strokeColor=none;fillColor=none;align=left;verticalAlign=top;spacingLeft=4;spacingRight=4;overflow=hidden;rotatable=0;points=[[0,0.5],[1,0.5]];portConstraint=eastwest;whiteSpace=wrap;html=1;" vertex="1" parent="39F5YlfIFEwG8_Svd10A-19">
          <mxGeometry y="26" width="190" height="44" as="geometry" />
        </mxCell>
        <mxCell id="l4S7q1OCt5ux5UeJ87Dz-78" style="edgeStyle=orthogonalEdgeStyle;rounded=0;orthogonalLoop=1;jettySize=auto;html=1;entryX=0.75;entryY=0;entryDx=0;entryDy=0;" edge="1" parent="WIyWlLk6GJQsqaUBKTNV-1" source="39F5YlfIFEwG8_Svd10A-23" target="39F5YlfIFEwG8_Svd10A-44">
          <mxGeometry relative="1" as="geometry">
            <Array as="points">
              <mxPoint x="1410" y="-270" />
              <mxPoint x="1410" y="200" />
              <mxPoint x="1330" y="200" />
              <mxPoint x="1330" y="260" />
            </Array>
          </mxGeometry>
        </mxCell>
        <mxCell id="l4S7q1OCt5ux5UeJ87Dz-87" style="edgeStyle=orthogonalEdgeStyle;rounded=0;orthogonalLoop=1;jettySize=auto;html=1;" edge="1" parent="WIyWlLk6GJQsqaUBKTNV-1" source="39F5YlfIFEwG8_Svd10A-23" target="39F5YlfIFEwG8_Svd10A-35">
          <mxGeometry relative="1" as="geometry" />
        </mxCell>
        <mxCell id="39F5YlfIFEwG8_Svd10A-23" value="HighScoresManager" style="swimlane;fontStyle=1;align=center;verticalAlign=top;childLayout=stackLayout;horizontal=1;startSize=26;horizontalStack=0;resizeParent=1;resizeParentMax=0;resizeLast=0;collapsible=1;marginBottom=0;whiteSpace=wrap;html=1;" vertex="1" parent="WIyWlLk6GJQsqaUBKTNV-1">
          <mxGeometry x="1105" y="-455" width="270" height="240" as="geometry">
            <mxRectangle x="700" y="-180" width="150" height="30" as="alternateBounds" />
          </mxGeometry>
        </mxCell>
        <mxCell id="39F5YlfIFEwG8_Svd10A-24" value="- highScores: Map&amp;lt;String, List&amp;lt;HighScore&amp;gt;&amp;gt;" style="text;strokeColor=none;fillColor=none;align=left;verticalAlign=top;spacingLeft=4;spacingRight=4;overflow=hidden;rotatable=0;points=[[0,0.5],[1,0.5]];portConstraint=eastwest;whiteSpace=wrap;html=1;" vertex="1" parent="39F5YlfIFEwG8_Svd10A-23">
          <mxGeometry y="26" width="270" height="26" as="geometry" />
        </mxCell>
        <mxCell id="39F5YlfIFEwG8_Svd10A-25" value="" style="line;strokeWidth=1;fillColor=none;align=left;verticalAlign=middle;spacingTop=-1;spacingLeft=3;spacingRight=3;rotatable=0;labelPosition=right;points=[];portConstraint=eastwest;strokeColor=inherit;" vertex="1" parent="39F5YlfIFEwG8_Svd10A-23">
          <mxGeometry y="52" width="270" height="8" as="geometry" />
        </mxCell>
        <mxCell id="39F5YlfIFEwG8_Svd10A-26" value="+ HighScoresManager ()&lt;div&gt;- &amp;nbsp;initiallizeDefaultUser()&lt;/div&gt;&lt;div&gt;+ loadHighScores()&lt;/div&gt;&lt;div&gt;+ createDefaultScores( Map&amp;lt; String, String&amp;gt; accounts) : void&lt;/div&gt;&lt;div&gt;- createDefaultScores() : void&lt;/div&gt;&lt;div&gt;+ saveHighScores(): void&lt;/div&gt;&lt;div&gt;+ getTopScores( gameName: String , limit: int ) : List&amp;lt; HighScores&amp;gt;&lt;/div&gt;&lt;div&gt;+ addHighScores( username: String, highScore: HighScore) : void&lt;/div&gt;&lt;div&gt;&lt;br&gt;&lt;/div&gt;" style="text;strokeColor=none;fillColor=none;align=left;verticalAlign=top;spacingLeft=4;spacingRight=4;overflow=hidden;rotatable=0;points=[[0,0.5],[1,0.5]];portConstraint=eastwest;whiteSpace=wrap;html=1;" vertex="1" parent="39F5YlfIFEwG8_Svd10A-23">
          <mxGeometry y="60" width="270" height="180" as="geometry" />
        </mxCell>
        <mxCell id="l4S7q1OCt5ux5UeJ87Dz-86" style="edgeStyle=orthogonalEdgeStyle;rounded=0;orthogonalLoop=1;jettySize=auto;html=1;" edge="1" parent="WIyWlLk6GJQsqaUBKTNV-1" source="39F5YlfIFEwG8_Svd10A-27" target="39F5YlfIFEwG8_Svd10A-15">
          <mxGeometry relative="1" as="geometry" />
        </mxCell>
        <mxCell id="39F5YlfIFEwG8_Svd10A-27" value="LoginManager" style="swimlane;fontStyle=1;align=center;verticalAlign=top;childLayout=stackLayout;horizontal=1;startSize=26;horizontalStack=0;resizeParent=1;resizeParentMax=0;resizeLast=0;collapsible=1;marginBottom=0;whiteSpace=wrap;html=1;" vertex="1" parent="WIyWlLk6GJQsqaUBKTNV-1">
          <mxGeometry x="580" y="-590" width="290" height="240" as="geometry">
            <mxRectangle x="750" y="-150" width="120" height="30" as="alternateBounds" />
          </mxGeometry>
        </mxCell>
        <mxCell id="39F5YlfIFEwG8_Svd10A-28" value="- highScoresManager: HighScoresManager&lt;div&gt;- accounts: Map&amp;lt;String, String)&lt;/div&gt;" style="text;strokeColor=none;fillColor=none;align=left;verticalAlign=top;spacingLeft=4;spacingRight=4;overflow=hidden;rotatable=0;points=[[0,0.5],[1,0.5]];portConstraint=eastwest;whiteSpace=wrap;html=1;" vertex="1" parent="39F5YlfIFEwG8_Svd10A-27">
          <mxGeometry y="26" width="290" height="44" as="geometry" />
        </mxCell>
        <mxCell id="39F5YlfIFEwG8_Svd10A-29" value="" style="line;strokeWidth=1;fillColor=none;align=left;verticalAlign=middle;spacingTop=-1;spacingLeft=3;spacingRight=3;rotatable=0;labelPosition=right;points=[];portConstraint=eastwest;strokeColor=inherit;" vertex="1" parent="39F5YlfIFEwG8_Svd10A-27">
          <mxGeometry y="70" width="290" height="8" as="geometry" />
        </mxCell>
        <mxCell id="39F5YlfIFEwG8_Svd10A-30" value="+ LoginManager()&lt;div&gt;- loadAccounts()&lt;/div&gt;&lt;div&gt;+ createAccount ( username: string, password: String ) : boolean&lt;/div&gt;&lt;div&gt;+ login( username: String, password: String) : boolean&lt;/div&gt;&lt;div&gt;- saveAccounts() : void&lt;/div&gt;&lt;div&gt;+ getAccounts() : Map &amp;lt; String, String&amp;gt;&lt;/div&gt;&lt;div&gt;+ addAccount( username: String, password: String): void&lt;/div&gt;" style="text;strokeColor=none;fillColor=none;align=left;verticalAlign=top;spacingLeft=4;spacingRight=4;overflow=hidden;rotatable=0;points=[[0,0.5],[1,0.5]];portConstraint=eastwest;whiteSpace=wrap;html=1;" vertex="1" parent="39F5YlfIFEwG8_Svd10A-27">
          <mxGeometry y="78" width="290" height="162" as="geometry" />
        </mxCell>
        <mxCell id="39F5YlfIFEwG8_Svd10A-31" value="PasswordHasher" style="swimlane;fontStyle=1;align=center;verticalAlign=top;childLayout=stackLayout;horizontal=1;startSize=26;horizontalStack=0;resizeParent=1;resizeParentMax=0;resizeLast=0;collapsible=1;marginBottom=0;whiteSpace=wrap;html=1;" vertex="1" parent="WIyWlLk6GJQsqaUBKTNV-1">
          <mxGeometry x="280" y="-570" width="210" height="140" as="geometry">
            <mxRectangle x="345" y="-200" width="130" height="30" as="alternateBounds" />
          </mxGeometry>
        </mxCell>
        <mxCell id="39F5YlfIFEwG8_Svd10A-32" value="- SALT_LENGTH : int { static}" style="text;strokeColor=none;fillColor=none;align=left;verticalAlign=top;spacingLeft=4;spacingRight=4;overflow=hidden;rotatable=0;points=[[0,0.5],[1,0.5]];portConstraint=eastwest;whiteSpace=wrap;html=1;" vertex="1" parent="39F5YlfIFEwG8_Svd10A-31">
          <mxGeometry y="26" width="210" height="26" as="geometry" />
        </mxCell>
        <mxCell id="39F5YlfIFEwG8_Svd10A-33" value="" style="line;strokeWidth=1;fillColor=none;align=left;verticalAlign=middle;spacingTop=-1;spacingLeft=3;spacingRight=3;rotatable=0;labelPosition=right;points=[];portConstraint=eastwest;strokeColor=inherit;" vertex="1" parent="39F5YlfIFEwG8_Svd10A-31">
          <mxGeometry y="52" width="210" height="8" as="geometry" />
        </mxCell>
        <mxCell id="39F5YlfIFEwG8_Svd10A-34" value="+ hashPassword( password: String) : String&amp;nbsp;&lt;div&gt;+ verifyPassword( storedHash: String, password: String) : boolean&lt;/div&gt;&lt;div&gt;&lt;br&gt;&lt;/div&gt;" style="text;strokeColor=none;fillColor=none;align=left;verticalAlign=top;spacingLeft=4;spacingRight=4;overflow=hidden;rotatable=0;points=[[0,0.5],[1,0.5]];portConstraint=eastwest;whiteSpace=wrap;html=1;" vertex="1" parent="39F5YlfIFEwG8_Svd10A-31">
          <mxGeometry y="60" width="210" height="80" as="geometry" />
        </mxCell>
        <mxCell id="39F5YlfIFEwG8_Svd10A-35" value="BlackJackUI" style="swimlane;fontStyle=1;align=center;verticalAlign=top;childLayout=stackLayout;horizontal=1;startSize=26;horizontalStack=0;resizeParent=1;resizeParentMax=0;resizeLast=0;collapsible=1;marginBottom=0;whiteSpace=wrap;html=1;" vertex="1" parent="WIyWlLk6GJQsqaUBKTNV-1">
          <mxGeometry x="1568" y="-620" width="410" height="670" as="geometry">
            <mxRectangle x="1670" y="-175" width="110" height="30" as="alternateBounds" />
          </mxGeometry>
        </mxCell>
        <mxCell id="39F5YlfIFEwG8_Svd10A-36" value="- loadStateField: TextArea&lt;div&gt;- startButton, loadButton: Button&lt;/div&gt;&lt;div&gt;- game: BlackJackGame&lt;/div&gt;&lt;div&gt;- gameManagerController : GameManagerController&lt;/div&gt;&lt;div&gt;- toolbar: ToolbarUI&lt;/div&gt;&lt;div&gt;- statusLabel: Label&lt;/div&gt;&lt;div&gt;- sessionFinished: boolean&lt;/div&gt;&lt;div&gt;- username: String&lt;/div&gt;&lt;div&gt;- highScoreManager: HighScoresManager&lt;/div&gt;&lt;div&gt;- saveButton: Button&lt;/div&gt;&lt;div&gt;- stopButton : Button&lt;/div&gt;&lt;div&gt;- newRoundButton: Button&lt;/div&gt;&lt;div&gt;- isBlackJackRunning: boolean&lt;/div&gt;" style="text;strokeColor=none;fillColor=none;align=left;verticalAlign=top;spacingLeft=4;spacingRight=4;overflow=hidden;rotatable=0;points=[[0,0.5],[1,0.5]];portConstraint=eastwest;whiteSpace=wrap;html=1;" vertex="1" parent="39F5YlfIFEwG8_Svd10A-35">
          <mxGeometry y="26" width="410" height="204" as="geometry" />
        </mxCell>
        <mxCell id="39F5YlfIFEwG8_Svd10A-37" value="" style="line;strokeWidth=1;fillColor=none;align=left;verticalAlign=middle;spacingTop=-1;spacingLeft=3;spacingRight=3;rotatable=0;labelPosition=right;points=[];portConstraint=eastwest;strokeColor=inherit;" vertex="1" parent="39F5YlfIFEwG8_Svd10A-35">
          <mxGeometry y="230" width="410" height="8" as="geometry" />
        </mxCell>
        <mxCell id="39F5YlfIFEwG8_Svd10A-38" value="+ BlackJackUI( username: String)&lt;div&gt;+ start ( primaryStage: Stage) : void&lt;/div&gt;&lt;div&gt;- startNewGame( stage: Stage) : void&lt;/div&gt;&lt;div&gt;- showLoadScene( stage: Stage) : void&lt;/div&gt;&lt;div&gt;- updateUI( stage: Stage) : void&lt;/div&gt;&lt;div&gt;- updateStatus( message: String) : void&lt;/div&gt;&lt;div&gt;- handleBotTurn( stage: Stage) : void&lt;/div&gt;&lt;div&gt;- handlePlayerTurnWithDelay( stage: Stage, minHandValue: int) : void&lt;/div&gt;&lt;div&gt;- userAction ( gameActionBox: HBox, stage: Stage, game: BlackJackGame) : void&lt;/div&gt;&lt;div&gt;- highlightPlayerBox ( game: BlackJackGame, dealerBox: VBox, userBox: VBox, player1Box: VBox, player2Box : VBox) : void&lt;/div&gt;&lt;div&gt;- resetBoxStyles( boxes: VBox) : void&lt;/div&gt;&lt;div&gt;- highlightBox ( box: VBox) : void&lt;/div&gt;&lt;div&gt;- createCareImageView( card: Card, rotation: double, width: int) : ImageView&lt;/div&gt;&lt;div&gt;- createBotCardsBox ( hand: List&amp;lt; Card&amp;gt;) : VBox&lt;/div&gt;&lt;div&gt;- createDealerCardsBox ( hand: List&amp;lt; Card &amp;gt; ) : HBox&lt;/div&gt;&lt;div&gt;- createUserCardsBox ( hand: List&amp;lt; Card &amp;gt; ) : HBox&lt;/div&gt;&lt;div&gt;- updateCardsDisplay( dealerBox: VBox, userBox: VBox, player1Box: VBox, player2Box: VBox) : void&lt;/div&gt;&lt;div&gt;- getCardBackImageView ( width: int) : ImageView&lt;/div&gt;&lt;div&gt;- setBackgroundImage( blackjackGame: AnchorPane) : void&lt;/div&gt;&lt;div&gt;- getBetImage( betAmount: int, width: int) : ImageView&lt;/div&gt;&lt;div&gt;- createBetImagesLayout(): BorderPane&lt;/div&gt;&lt;div&gt;- createTurnLabel(): Label&lt;/div&gt;&lt;div&gt;- createLabel( message: String): Label&lt;/div&gt;&lt;div&gt;- createPlayerInfoLayout( userBalanceLabel: Label, player1BalanceLabel: Label, player2BalanceLabel: Label) : BorderPane&lt;/div&gt;&lt;div&gt;&lt;br&gt;&lt;/div&gt;" style="text;strokeColor=none;fillColor=none;align=left;verticalAlign=top;spacingLeft=4;spacingRight=4;overflow=hidden;rotatable=0;points=[[0,0.5],[1,0.5]];portConstraint=eastwest;whiteSpace=wrap;html=1;" vertex="1" parent="39F5YlfIFEwG8_Svd10A-35">
          <mxGeometry y="238" width="410" height="432" as="geometry" />
        </mxCell>
        <mxCell id="39F5YlfIFEwG8_Svd10A-44" value="SnakeUI" style="swimlane;fontStyle=1;align=center;verticalAlign=top;childLayout=stackLayout;horizontal=1;startSize=26;horizontalStack=0;resizeParent=1;resizeParentMax=0;resizeLast=0;collapsible=1;marginBottom=0;whiteSpace=wrap;html=1;" vertex="1" parent="WIyWlLk6GJQsqaUBKTNV-1">
          <mxGeometry x="1103" y="230" width="304" height="420" as="geometry">
            <mxRectangle x="1370" y="510" width="90" height="30" as="alternateBounds" />
          </mxGeometry>
        </mxCell>
        <mxCell id="39F5YlfIFEwG8_Svd10A-45" value="+ block_size: int {static}&lt;div&gt;+ isSnakeRunning: boolean { static }&lt;/div&gt;&lt;div&gt;- width, height: int&lt;/div&gt;&lt;div&gt;- il : int&lt;/div&gt;&lt;div&gt;- then: long&lt;/div&gt;&lt;div&gt;- changed: boolean&lt;/div&gt;&lt;div&gt;- nextUpdate: int&lt;/div&gt;&lt;div&gt;- hasNext: boolean&lt;/div&gt;&lt;div&gt;- f : Field&lt;/div&gt;&lt;div&gt;- pauseStage: Stage&lt;/div&gt;&lt;div&gt;- username: String&lt;/div&gt;&lt;div&gt;- paused: boolean&lt;/div&gt;&lt;div&gt;- highScoresManager: HighScoresManager&lt;/div&gt;&lt;div&gt;- toolbar: ToolBarUI&lt;/div&gt;&lt;div&gt;- gameManagerController: GameManagerController&lt;/div&gt;" style="text;strokeColor=none;fillColor=none;align=left;verticalAlign=top;spacingLeft=4;spacingRight=4;overflow=hidden;rotatable=0;points=[[0,0.5],[1,0.5]];portConstraint=eastwest;whiteSpace=wrap;html=1;" vertex="1" parent="39F5YlfIFEwG8_Svd10A-44">
          <mxGeometry y="26" width="304" height="224" as="geometry" />
        </mxCell>
        <mxCell id="39F5YlfIFEwG8_Svd10A-46" value="" style="line;strokeWidth=1;fillColor=none;align=left;verticalAlign=middle;spacingTop=-1;spacingLeft=3;spacingRight=3;rotatable=0;labelPosition=right;points=[];portConstraint=eastwest;strokeColor=inherit;" vertex="1" parent="39F5YlfIFEwG8_Svd10A-44">
          <mxGeometry y="250" width="304" height="8" as="geometry" />
        </mxCell>
        <mxCell id="39F5YlfIFEwG8_Svd10A-47" value="+ SnakeUI( username: String)&lt;div&gt;+ start( ps: Stage) : void&lt;/div&gt;&lt;div&gt;- displayGameOverScreen( finalScore: int, ps: Stage): void&lt;/div&gt;&lt;div&gt;+ setDirection ( s: Snake, d: int) : void&lt;/div&gt;&lt;div&gt;- togglePause( timer: AnimationTimer) : void&lt;/div&gt;&lt;div&gt;- initPausePopup( ps: Stage): void&lt;/div&gt;&lt;div&gt;- updateHighScore( username: String, score: int): void&lt;/div&gt;&lt;div&gt;- restartGame( ps : stage) : void&lt;/div&gt;" style="text;strokeColor=none;fillColor=none;align=left;verticalAlign=top;spacingLeft=4;spacingRight=4;overflow=hidden;rotatable=0;points=[[0,0.5],[1,0.5]];portConstraint=eastwest;whiteSpace=wrap;html=1;" vertex="1" parent="39F5YlfIFEwG8_Svd10A-44">
          <mxGeometry y="258" width="304" height="162" as="geometry" />
        </mxCell>
        <mxCell id="39F5YlfIFEwG8_Svd10A-48" value="ToolBarUI" style="swimlane;fontStyle=1;align=center;verticalAlign=top;childLayout=stackLayout;horizontal=1;startSize=26;horizontalStack=0;resizeParent=1;resizeParentMax=0;resizeLast=0;collapsible=1;marginBottom=0;whiteSpace=wrap;html=1;" vertex="1" parent="WIyWlLk6GJQsqaUBKTNV-1">
          <mxGeometry x="1145" y="-130" width="220" height="130" as="geometry">
            <mxRectangle x="1110" y="320" width="90" height="30" as="alternateBounds" />
          </mxGeometry>
        </mxCell>
        <mxCell id="39F5YlfIFEwG8_Svd10A-49" value="- mainMenuButton: Button&lt;div&gt;- singOutButton: Button&lt;/div&gt;" style="text;strokeColor=none;fillColor=none;align=left;verticalAlign=top;spacingLeft=4;spacingRight=4;overflow=hidden;rotatable=0;points=[[0,0.5],[1,0.5]];portConstraint=eastwest;whiteSpace=wrap;html=1;" vertex="1" parent="39F5YlfIFEwG8_Svd10A-48">
          <mxGeometry y="26" width="220" height="44" as="geometry" />
        </mxCell>
        <mxCell id="39F5YlfIFEwG8_Svd10A-50" value="" style="line;strokeWidth=1;fillColor=none;align=left;verticalAlign=middle;spacingTop=-1;spacingLeft=3;spacingRight=3;rotatable=0;labelPosition=right;points=[];portConstraint=eastwest;strokeColor=inherit;" vertex="1" parent="39F5YlfIFEwG8_Svd10A-48">
          <mxGeometry y="70" width="220" height="8" as="geometry" />
        </mxCell>
        <mxCell id="39F5YlfIFEwG8_Svd10A-51" value="+ ToolbarUI ( controller: GameManagerController, stage: Stage)&lt;div&gt;&lt;br&gt;&lt;/div&gt;" style="text;strokeColor=none;fillColor=none;align=left;verticalAlign=top;spacingLeft=4;spacingRight=4;overflow=hidden;rotatable=0;points=[[0,0.5],[1,0.5]];portConstraint=eastwest;whiteSpace=wrap;html=1;" vertex="1" parent="39F5YlfIFEwG8_Svd10A-48">
          <mxGeometry y="78" width="220" height="52" as="geometry" />
        </mxCell>
        <mxCell id="39F5YlfIFEwG8_Svd10A-52" value="LoginPageUI" style="swimlane;fontStyle=1;align=center;verticalAlign=top;childLayout=stackLayout;horizontal=1;startSize=26;horizontalStack=0;resizeParent=1;resizeParentMax=0;resizeLast=0;collapsible=1;marginBottom=0;whiteSpace=wrap;html=1;" vertex="1" parent="WIyWlLk6GJQsqaUBKTNV-1">
          <mxGeometry x="280" y="30" width="230" height="340" as="geometry">
            <mxRectangle x="325" y="350" width="80" height="30" as="alternateBounds" />
          </mxGeometry>
        </mxCell>
        <mxCell id="39F5YlfIFEwG8_Svd10A-53" value="- loginPage: BorderPane&lt;div&gt;- usernameField: TextField&lt;/div&gt;&lt;div&gt;- passwordField: PasswordField&lt;/div&gt;&lt;div&gt;- loginButton: Button&lt;/div&gt;&lt;div&gt;- createAccountButton: Button&lt;/div&gt;&lt;div&gt;- buttonStyle: String&lt;/div&gt;&lt;div&gt;- buttonHoverStyle : String&lt;/div&gt;&lt;div&gt;- fieldStyle: String&lt;/div&gt;&lt;div&gt;- backgroundStyle: String&lt;/div&gt;&lt;div&gt;&lt;br&gt;&lt;/div&gt;" style="text;strokeColor=none;fillColor=none;align=left;verticalAlign=top;spacingLeft=4;spacingRight=4;overflow=hidden;rotatable=0;points=[[0,0.5],[1,0.5]];portConstraint=eastwest;whiteSpace=wrap;html=1;" vertex="1" parent="39F5YlfIFEwG8_Svd10A-52">
          <mxGeometry y="26" width="230" height="134" as="geometry" />
        </mxCell>
        <mxCell id="39F5YlfIFEwG8_Svd10A-54" value="" style="line;strokeWidth=1;fillColor=none;align=left;verticalAlign=middle;spacingTop=-1;spacingLeft=3;spacingRight=3;rotatable=0;labelPosition=right;points=[];portConstraint=eastwest;strokeColor=inherit;" vertex="1" parent="39F5YlfIFEwG8_Svd10A-52">
          <mxGeometry y="160" width="230" height="8" as="geometry" />
        </mxCell>
        <mxCell id="39F5YlfIFEwG8_Svd10A-55" value="+ LoginPageUI( controller: GameManagerController)&lt;div&gt;+ getLoginPage(): BorderPane&lt;/div&gt;&lt;div&gt;- setupUI( controller: GameManagerController): void&lt;/div&gt;&lt;div&gt;- createGridPane(): GridPane&lt;/div&gt;&lt;div&gt;- addInputFields( gridPane: GridPane): void&lt;/div&gt;&lt;div&gt;- createIconLabel( text: String): Label&lt;/div&gt;&lt;div&gt;- createFieldLabel( text: String) : Label&lt;/div&gt;&lt;div&gt;- configureButton( button: Button) : void&lt;/div&gt;" style="text;strokeColor=none;fillColor=none;align=left;verticalAlign=top;spacingLeft=4;spacingRight=4;overflow=hidden;rotatable=0;points=[[0,0.5],[1,0.5]];portConstraint=eastwest;whiteSpace=wrap;html=1;" vertex="1" parent="39F5YlfIFEwG8_Svd10A-52">
          <mxGeometry y="168" width="230" height="172" as="geometry" />
        </mxCell>
        <mxCell id="4Gt7svRcilQnWDfZS3GQ-0" value="Block" style="swimlane;fontStyle=1;align=center;verticalAlign=top;childLayout=stackLayout;horizontal=1;startSize=26;horizontalStack=0;resizeParent=1;resizeParentMax=0;resizeLast=0;collapsible=1;marginBottom=0;whiteSpace=wrap;html=1;" vertex="1" parent="WIyWlLk6GJQsqaUBKTNV-1">
          <mxGeometry x="630" y="610" width="290" height="360" as="geometry">
            <mxRectangle x="1460" y="570" width="70" height="30" as="alternateBounds" />
          </mxGeometry>
        </mxCell>
        <mxCell id="4Gt7svRcilQnWDfZS3GQ-1" value="- posx, posY, oldPosX, oldPosY: int&lt;div&gt;+ &lt;u&gt;UP&lt;/u&gt;, &lt;u&gt;RIGHT&lt;/u&gt;, &lt;u&gt;DOWN&lt;/u&gt;, &lt;u&gt;LEFT&lt;/u&gt; : int {readOnly}&lt;/div&gt;&lt;div&gt;# previous , next : Block&lt;/div&gt;&lt;div&gt;# direction: int = LEFT&lt;/div&gt;&lt;div&gt;- maxX, maxY : int&lt;/div&gt;&lt;div&gt;&lt;br&gt;&lt;/div&gt;" style="text;strokeColor=none;fillColor=none;align=left;verticalAlign=top;spacingLeft=4;spacingRight=4;overflow=hidden;rotatable=0;points=[[0,0.5],[1,0.5]];portConstraint=eastwest;whiteSpace=wrap;html=1;" vertex="1" parent="4Gt7svRcilQnWDfZS3GQ-0">
          <mxGeometry y="26" width="290" height="84" as="geometry" />
        </mxCell>
        <mxCell id="4Gt7svRcilQnWDfZS3GQ-2" value="" style="line;strokeWidth=1;fillColor=none;align=left;verticalAlign=middle;spacingTop=-1;spacingLeft=3;spacingRight=3;rotatable=0;labelPosition=right;points=[];portConstraint=eastwest;strokeColor=inherit;" vertex="1" parent="4Gt7svRcilQnWDfZS3GQ-0">
          <mxGeometry y="110" width="290" height="8" as="geometry" />
        </mxCell>
        <mxCell id="4Gt7svRcilQnWDfZS3GQ-3" value="+ Block( x:int, y:int, p: Block, n: Block, f: Field)&lt;div&gt;+ setDirection( direction: int): void&lt;/div&gt;&lt;div&gt;+ update(): void&lt;/div&gt;&lt;div&gt;+ moveUp(): void&lt;/div&gt;&lt;div&gt;+ moveDown(): void&lt;/div&gt;&lt;div&gt;+ moveLeft(): void&lt;/div&gt;&lt;div&gt;+ moveRight(): void&lt;/div&gt;&lt;div&gt;+ updatePosition(): void&lt;/div&gt;&lt;div&gt;+ getPosX(): int&lt;/div&gt;&lt;div&gt;+ getPosY(): int&lt;/div&gt;&lt;div&gt;+ getOldPosX(): int&lt;/div&gt;&lt;div&gt;+ getOldPosY(): int&lt;/div&gt;&lt;div&gt;+ setPosX( x: int): void&lt;/div&gt;&lt;div&gt;+ setPosY( y: int) : void&lt;/div&gt;&lt;div&gt;+ addPosX( x: int) : void&lt;/div&gt;&lt;div&gt;+ addPosY(y: int) : void&lt;/div&gt;" style="text;strokeColor=none;fillColor=none;align=left;verticalAlign=top;spacingLeft=4;spacingRight=4;overflow=hidden;rotatable=0;points=[[0,0.5],[1,0.5]];portConstraint=eastwest;whiteSpace=wrap;html=1;" vertex="1" parent="4Gt7svRcilQnWDfZS3GQ-0">
          <mxGeometry y="118" width="290" height="242" as="geometry" />
        </mxCell>
        <mxCell id="4Gt7svRcilQnWDfZS3GQ-4" value="Field" style="swimlane;fontStyle=1;align=center;verticalAlign=top;childLayout=stackLayout;horizontal=1;startSize=26;horizontalStack=0;resizeParent=1;resizeParentMax=0;resizeLast=0;collapsible=1;marginBottom=0;whiteSpace=wrap;html=1;" vertex="1" parent="WIyWlLk6GJQsqaUBKTNV-1">
          <mxGeometry x="1620" y="390" width="320" height="510" as="geometry">
            <mxRectangle x="1815" y="570" width="70" height="30" as="alternateBounds" />
          </mxGeometry>
        </mxCell>
        <mxCell id="4Gt7svRcilQnWDfZS3GQ-5" value="- w, h; int&lt;div&gt;- blocks: ArrayList&amp;lt;Block&amp;gt;&lt;/div&gt;&lt;div&gt;- f: Food&lt;/div&gt;&lt;div&gt;- score: int&lt;/div&gt;&lt;div&gt;- snake: Snake&lt;/div&gt;&lt;div&gt;- gc: GraphicsContext&lt;/div&gt;&lt;div&gt;- &amp;nbsp;headUp, headDown, headLeft, headRight,&amp;nbsp;&lt;/div&gt;&lt;div&gt;&lt;span style=&quot;white-space: pre;&quot;&gt;&#x9;&lt;/span&gt;bodyHorizontal, bodyVertical, bodyTopLeft, &lt;span style=&quot;white-space: pre;&quot;&gt;&#x9;&lt;/span&gt;bodyTopRight, bodyBottomLeft, bodyBottomRight,&amp;nbsp;&lt;/div&gt;&lt;div&gt;&lt;span style=&quot;white-space: pre;&quot;&gt;&#x9;&lt;/span&gt;tailUp, tailDown, tailLeft, tailRight : Image&lt;/div&gt;&lt;div&gt;- food: Image&lt;/div&gt;" style="text;strokeColor=none;fillColor=none;align=left;verticalAlign=top;spacingLeft=4;spacingRight=4;overflow=hidden;rotatable=0;points=[[0,0.5],[1,0.5]];portConstraint=eastwest;whiteSpace=wrap;html=1;" vertex="1" parent="4Gt7svRcilQnWDfZS3GQ-4">
          <mxGeometry y="26" width="320" height="174" as="geometry" />
        </mxCell>
        <mxCell id="4Gt7svRcilQnWDfZS3GQ-6" value="" style="line;strokeWidth=1;fillColor=none;align=left;verticalAlign=middle;spacingTop=-1;spacingLeft=3;spacingRight=3;rotatable=0;labelPosition=right;points=[];portConstraint=eastwest;strokeColor=inherit;" vertex="1" parent="4Gt7svRcilQnWDfZS3GQ-4">
          <mxGeometry y="200" width="320" height="8" as="geometry" />
        </mxCell>
        <mxCell id="4Gt7svRcilQnWDfZS3GQ-7" value="+ Field( width: int, height: int)&lt;div&gt;- loadImages(): void&lt;/div&gt;&lt;div&gt;- drawGrid(): void&lt;/div&gt;&lt;div&gt;- drawFood(): void&lt;/div&gt;&lt;div&gt;- draw(): void&lt;/div&gt;&lt;div&gt;- getHeadImage( b: Block): Image&lt;/div&gt;&lt;div&gt;- getTailImage( tail: Block): Image&lt;/div&gt;&lt;div&gt;- getBodyImage( b: Block): Image&lt;/div&gt;&lt;div&gt;+ addSnake( s: Snake): void&lt;/div&gt;&lt;div&gt;+ update(): void&lt;/div&gt;&lt;div&gt;- drawBlock( b: Block): void&lt;/div&gt;&lt;div&gt;+ isDead(): boolean&lt;/div&gt;&lt;div&gt;+ addBlock( b: Block): void&lt;/div&gt;&lt;div&gt;+ addNewBlock(): void&lt;/div&gt;&lt;div&gt;+ addFood(): void&lt;/div&gt;&lt;div&gt;+ isEaten(f : Food): boolean&lt;/div&gt;&lt;div&gt;+ getW() : int&lt;/div&gt;&lt;div&gt;+ getH(): int&lt;/div&gt;&lt;div&gt;+ getScore() : int&lt;/div&gt;&lt;div&gt;+ getSnake(): Snake&lt;/div&gt;" style="text;strokeColor=none;fillColor=none;align=left;verticalAlign=top;spacingLeft=4;spacingRight=4;overflow=hidden;rotatable=0;points=[[0,0.5],[1,0.5]];portConstraint=eastwest;whiteSpace=wrap;html=1;" vertex="1" parent="4Gt7svRcilQnWDfZS3GQ-4">
          <mxGeometry y="208" width="320" height="302" as="geometry" />
        </mxCell>
        <mxCell id="4Gt7svRcilQnWDfZS3GQ-8" value="Food" style="swimlane;fontStyle=1;align=center;verticalAlign=top;childLayout=stackLayout;horizontal=1;startSize=26;horizontalStack=0;resizeParent=1;resizeParentMax=0;resizeLast=0;collapsible=1;marginBottom=0;whiteSpace=wrap;html=1;" vertex="1" parent="WIyWlLk6GJQsqaUBKTNV-1">
          <mxGeometry x="1385" y="860" width="160" height="120" as="geometry">
            <mxRectangle x="1980" y="650" width="70" height="30" as="alternateBounds" />
          </mxGeometry>
        </mxCell>
        <mxCell id="4Gt7svRcilQnWDfZS3GQ-9" value="- posX, posY: int" style="text;strokeColor=none;fillColor=none;align=left;verticalAlign=top;spacingLeft=4;spacingRight=4;overflow=hidden;rotatable=0;points=[[0,0.5],[1,0.5]];portConstraint=eastwest;whiteSpace=wrap;html=1;" vertex="1" parent="4Gt7svRcilQnWDfZS3GQ-8">
          <mxGeometry y="26" width="160" height="26" as="geometry" />
        </mxCell>
        <mxCell id="4Gt7svRcilQnWDfZS3GQ-10" value="" style="line;strokeWidth=1;fillColor=none;align=left;verticalAlign=middle;spacingTop=-1;spacingLeft=3;spacingRight=3;rotatable=0;labelPosition=right;points=[];portConstraint=eastwest;strokeColor=inherit;" vertex="1" parent="4Gt7svRcilQnWDfZS3GQ-8">
          <mxGeometry y="52" width="160" height="8" as="geometry" />
        </mxCell>
        <mxCell id="4Gt7svRcilQnWDfZS3GQ-11" value="+ Food( x, y : int)&lt;div&gt;+ getPosX(): int&lt;/div&gt;&lt;div&gt;+ getPosY(): int&lt;/div&gt;" style="text;strokeColor=none;fillColor=none;align=left;verticalAlign=top;spacingLeft=4;spacingRight=4;overflow=hidden;rotatable=0;points=[[0,0.5],[1,0.5]];portConstraint=eastwest;whiteSpace=wrap;html=1;" vertex="1" parent="4Gt7svRcilQnWDfZS3GQ-8">
          <mxGeometry y="60" width="160" height="60" as="geometry" />
        </mxCell>
        <mxCell id="4Gt7svRcilQnWDfZS3GQ-12" value="Snake" style="swimlane;fontStyle=1;align=center;verticalAlign=top;childLayout=stackLayout;horizontal=1;startSize=26;horizontalStack=0;resizeParent=1;resizeParentMax=0;resizeLast=0;collapsible=1;marginBottom=0;whiteSpace=wrap;html=1;" vertex="1" parent="WIyWlLk6GJQsqaUBKTNV-1">
          <mxGeometry x="1040" y="760" width="250" height="250" as="geometry">
            <mxRectangle x="1310" y="960" width="70" height="30" as="alternateBounds" />
          </mxGeometry>
        </mxCell>
        <mxCell id="4Gt7svRcilQnWDfZS3GQ-13" value="# blocks: ArrayList&amp;lt;Block&amp;gt;&lt;div&gt;# head: Block&lt;/div&gt;&lt;div&gt;# tail: Block&lt;/div&gt;" style="text;strokeColor=none;fillColor=none;align=left;verticalAlign=top;spacingLeft=4;spacingRight=4;overflow=hidden;rotatable=0;points=[[0,0.5],[1,0.5]];portConstraint=eastwest;whiteSpace=wrap;html=1;" vertex="1" parent="4Gt7svRcilQnWDfZS3GQ-12">
          <mxGeometry y="26" width="250" height="64" as="geometry" />
        </mxCell>
        <mxCell id="4Gt7svRcilQnWDfZS3GQ-14" value="" style="line;strokeWidth=1;fillColor=none;align=left;verticalAlign=middle;spacingTop=-1;spacingLeft=3;spacingRight=3;rotatable=0;labelPosition=right;points=[];portConstraint=eastwest;strokeColor=inherit;" vertex="1" parent="4Gt7svRcilQnWDfZS3GQ-12">
          <mxGeometry y="90" width="250" height="8" as="geometry" />
        </mxCell>
        <mxCell id="4Gt7svRcilQnWDfZS3GQ-15" value="+ Snake( il: int, f : Field)&lt;div&gt;+ setDirection( d: int) : vid&lt;/div&gt;&lt;div&gt;+ getDirection() : int&lt;/div&gt;&lt;div&gt;+getHead(): Block&lt;/div&gt;&lt;div&gt;+ getTail(): Block&lt;/div&gt;&lt;div&gt;+getBlocks(): List&amp;lt;Block?&lt;/div&gt;&lt;div&gt;+grow(field: Field): void&lt;/div&gt;&lt;div&gt;+addBlock(b: Block): void&lt;/div&gt;&lt;div&gt;+ moveSnake(): void&lt;/div&gt;" style="text;strokeColor=none;fillColor=none;align=left;verticalAlign=top;spacingLeft=4;spacingRight=4;overflow=hidden;rotatable=0;points=[[0,0.5],[1,0.5]];portConstraint=eastwest;whiteSpace=wrap;html=1;" vertex="1" parent="4Gt7svRcilQnWDfZS3GQ-12">
          <mxGeometry y="98" width="250" height="152" as="geometry" />
        </mxCell>
        <mxCell id="4Gt7svRcilQnWDfZS3GQ-22" value="BlackJackGame" style="swimlane;fontStyle=1;align=center;verticalAlign=top;childLayout=stackLayout;horizontal=1;startSize=26;horizontalStack=0;resizeParent=1;resizeParentMax=0;resizeLast=0;collapsible=1;marginBottom=0;whiteSpace=wrap;html=1;" vertex="1" parent="WIyWlLk6GJQsqaUBKTNV-1">
          <mxGeometry x="1465" y="-1090" width="250" height="390" as="geometry">
            <mxRectangle x="1580" y="-770" width="130" height="30" as="alternateBounds" />
          </mxGeometry>
        </mxCell>
        <mxCell id="4Gt7svRcilQnWDfZS3GQ-23" value="- deck: Deck&lt;div&gt;- humanPlayer: Player&lt;/div&gt;&lt;div&gt;- dealer: Player&lt;/div&gt;&lt;div&gt;- player1: Player&lt;/div&gt;&lt;div&gt;- player2: Player&lt;/div&gt;&lt;div&gt;- turn: String&lt;/div&gt;" style="text;strokeColor=none;fillColor=none;align=left;verticalAlign=top;spacingLeft=4;spacingRight=4;overflow=hidden;rotatable=0;points=[[0,0.5],[1,0.5]];portConstraint=eastwest;whiteSpace=wrap;html=1;" vertex="1" parent="4Gt7svRcilQnWDfZS3GQ-22">
          <mxGeometry y="26" width="250" height="94" as="geometry" />
        </mxCell>
        <mxCell id="4Gt7svRcilQnWDfZS3GQ-24" value="" style="line;strokeWidth=1;fillColor=none;align=left;verticalAlign=middle;spacingTop=-1;spacingLeft=3;spacingRight=3;rotatable=0;labelPosition=right;points=[];portConstraint=eastwest;strokeColor=inherit;" vertex="1" parent="4Gt7svRcilQnWDfZS3GQ-22">
          <mxGeometry y="120" width="250" height="8" as="geometry" />
        </mxCell>
        <mxCell id="4Gt7svRcilQnWDfZS3GQ-25" value="+ BlackJackGame()&lt;div&gt;- initializeHands(): void&lt;/div&gt;&lt;div&gt;+ startNewRound(): void&lt;/div&gt;&lt;div&gt;+ getCurrentPlayer(): Player&lt;/div&gt;&lt;div&gt;+ nextTurn(): void&lt;/div&gt;&lt;div&gt;+ saveGameState(): String&lt;/div&gt;&lt;div&gt;+ loadGameState( saveStateString: String): boolean&lt;/div&gt;&lt;div&gt;- isValidBalance( value: String): boolean&lt;/div&gt;&lt;div&gt;- isValidBet( value: String) : boolean&lt;/div&gt;&lt;div&gt;+ calculateResults( player: Player): String&lt;/div&gt;&lt;div&gt;+ getHumanPlayer(): Player&lt;/div&gt;&lt;div&gt;+ getDealer(): Player&lt;/div&gt;&lt;div&gt;+ getPlayer1() : Player&lt;/div&gt;&lt;div&gt;+ getPlayer2(): Player&lt;/div&gt;&lt;div&gt;+ getDeck(): Deck&lt;/div&gt;" style="text;strokeColor=none;fillColor=none;align=left;verticalAlign=top;spacingLeft=4;spacingRight=4;overflow=hidden;rotatable=0;points=[[0,0.5],[1,0.5]];portConstraint=eastwest;whiteSpace=wrap;html=1;" vertex="1" parent="4Gt7svRcilQnWDfZS3GQ-22">
          <mxGeometry y="128" width="250" height="262" as="geometry" />
        </mxCell>
        <mxCell id="4Gt7svRcilQnWDfZS3GQ-26" value="Card" style="swimlane;fontStyle=1;align=center;verticalAlign=top;childLayout=stackLayout;horizontal=1;startSize=26;horizontalStack=0;resizeParent=1;resizeParentMax=0;resizeLast=0;collapsible=1;marginBottom=0;whiteSpace=wrap;html=1;" vertex="1" parent="WIyWlLk6GJQsqaUBKTNV-1">
          <mxGeometry x="1870" y="-900" width="160" height="200" as="geometry">
            <mxRectangle x="1998" y="-1040" width="70" height="30" as="alternateBounds" />
          </mxGeometry>
        </mxCell>
        <mxCell id="4Gt7svRcilQnWDfZS3GQ-27" value="- suit: String&lt;div&gt;- rank: String&lt;/div&gt;&lt;div&gt;- value: int&lt;/div&gt;" style="text;strokeColor=none;fillColor=none;align=left;verticalAlign=top;spacingLeft=4;spacingRight=4;overflow=hidden;rotatable=0;points=[[0,0.5],[1,0.5]];portConstraint=eastwest;whiteSpace=wrap;html=1;" vertex="1" parent="4Gt7svRcilQnWDfZS3GQ-26">
          <mxGeometry y="26" width="160" height="54" as="geometry" />
        </mxCell>
        <mxCell id="4Gt7svRcilQnWDfZS3GQ-28" value="" style="line;strokeWidth=1;fillColor=none;align=left;verticalAlign=middle;spacingTop=-1;spacingLeft=3;spacingRight=3;rotatable=0;labelPosition=right;points=[];portConstraint=eastwest;strokeColor=inherit;" vertex="1" parent="4Gt7svRcilQnWDfZS3GQ-26">
          <mxGeometry y="80" width="160" height="8" as="geometry" />
        </mxCell>
        <mxCell id="4Gt7svRcilQnWDfZS3GQ-29" value="+ Card( suit: String, rank: String, value: int)&lt;div&gt;+ getSuit(): String&lt;/div&gt;&lt;div&gt;+ getRank(): String&lt;/div&gt;&lt;div&gt;+ getValue(): int&lt;/div&gt;&lt;div&gt;+ toString(): String&lt;/div&gt;" style="text;strokeColor=none;fillColor=none;align=left;verticalAlign=top;spacingLeft=4;spacingRight=4;overflow=hidden;rotatable=0;points=[[0,0.5],[1,0.5]];portConstraint=eastwest;whiteSpace=wrap;html=1;" vertex="1" parent="4Gt7svRcilQnWDfZS3GQ-26">
          <mxGeometry y="88" width="160" height="112" as="geometry" />
        </mxCell>
        <mxCell id="4Gt7svRcilQnWDfZS3GQ-38" value="&lt;b&gt;ComputerPlayer&lt;/b&gt;" style="swimlane;fontStyle=0;childLayout=stackLayout;horizontal=1;startSize=26;fillColor=none;horizontalStack=0;resizeParent=1;resizeParentMax=0;resizeLast=0;collapsible=1;marginBottom=0;whiteSpace=wrap;html=1;" vertex="1" parent="WIyWlLk6GJQsqaUBKTNV-1">
          <mxGeometry x="780" y="-950" width="140" height="120" as="geometry">
            <mxRectangle x="170" y="480" width="130" height="30" as="alternateBounds" />
          </mxGeometry>
        </mxCell>
        <mxCell id="4Gt7svRcilQnWDfZS3GQ-39" value="+ ComputerPlayer( name:String)" style="text;strokeColor=none;fillColor=none;align=left;verticalAlign=top;spacingLeft=4;spacingRight=4;overflow=hidden;rotatable=0;points=[[0,0.5],[1,0.5]];portConstraint=eastwest;whiteSpace=wrap;html=1;" vertex="1" parent="4Gt7svRcilQnWDfZS3GQ-38">
          <mxGeometry y="26" width="140" height="44" as="geometry" />
        </mxCell>
        <mxCell id="4Gt7svRcilQnWDfZS3GQ-40" value="+ takeTurn( deck:Deck): void" style="text;strokeColor=none;fillColor=none;align=left;verticalAlign=top;spacingLeft=4;spacingRight=4;overflow=hidden;rotatable=0;points=[[0,0.5],[1,0.5]];portConstraint=eastwest;whiteSpace=wrap;html=1;" vertex="1" parent="4Gt7svRcilQnWDfZS3GQ-38">
          <mxGeometry y="70" width="140" height="50" as="geometry" />
        </mxCell>
        <mxCell id="4Gt7svRcilQnWDfZS3GQ-43" value="&lt;b&gt;Dealer&lt;/b&gt;" style="swimlane;fontStyle=0;childLayout=stackLayout;horizontal=1;startSize=26;fillColor=none;horizontalStack=0;resizeParent=1;resizeParentMax=0;resizeLast=0;collapsible=1;marginBottom=0;whiteSpace=wrap;html=1;" vertex="1" parent="WIyWlLk6GJQsqaUBKTNV-1">
          <mxGeometry x="780" y="-1090" width="140" height="90" as="geometry">
            <mxRectangle x="50" y="480" width="80" height="30" as="alternateBounds" />
          </mxGeometry>
        </mxCell>
        <mxCell id="4Gt7svRcilQnWDfZS3GQ-44" value="+ Dealer()" style="text;strokeColor=none;fillColor=none;align=left;verticalAlign=top;spacingLeft=4;spacingRight=4;overflow=hidden;rotatable=0;points=[[0,0.5],[1,0.5]];portConstraint=eastwest;whiteSpace=wrap;html=1;" vertex="1" parent="4Gt7svRcilQnWDfZS3GQ-43">
          <mxGeometry y="26" width="140" height="24" as="geometry" />
        </mxCell>
        <mxCell id="4Gt7svRcilQnWDfZS3GQ-45" value="+ takeTurn( deck: Deck): void" style="text;strokeColor=none;fillColor=none;align=left;verticalAlign=top;spacingLeft=4;spacingRight=4;overflow=hidden;rotatable=0;points=[[0,0.5],[1,0.5]];portConstraint=eastwest;whiteSpace=wrap;html=1;" vertex="1" parent="4Gt7svRcilQnWDfZS3GQ-43">
          <mxGeometry y="50" width="140" height="40" as="geometry" />
        </mxCell>
        <mxCell id="4Gt7svRcilQnWDfZS3GQ-47" value="&lt;b&gt;HumanPlayer&lt;/b&gt;" style="swimlane;fontStyle=0;childLayout=stackLayout;horizontal=1;startSize=26;fillColor=none;horizontalStack=0;resizeParent=1;resizeParentMax=0;resizeLast=0;collapsible=1;marginBottom=0;whiteSpace=wrap;html=1;" vertex="1" parent="WIyWlLk6GJQsqaUBKTNV-1">
          <mxGeometry x="780" y="-770" width="140" height="120" as="geometry">
            <mxRectangle x="370" y="480" width="120" height="30" as="alternateBounds" />
          </mxGeometry>
        </mxCell>
        <mxCell id="4Gt7svRcilQnWDfZS3GQ-48" value="+ HumanPlayer( name: String)" style="text;strokeColor=none;fillColor=none;align=left;verticalAlign=top;spacingLeft=4;spacingRight=4;overflow=hidden;rotatable=0;points=[[0,0.5],[1,0.5]];portConstraint=eastwest;whiteSpace=wrap;html=1;" vertex="1" parent="4Gt7svRcilQnWDfZS3GQ-47">
          <mxGeometry y="26" width="140" height="44" as="geometry" />
        </mxCell>
        <mxCell id="4Gt7svRcilQnWDfZS3GQ-49" value="+ takeTurn( deck: Deck): void&lt;div&gt;&lt;br&gt;&lt;/div&gt;" style="text;strokeColor=none;fillColor=none;align=left;verticalAlign=top;spacingLeft=4;spacingRight=4;overflow=hidden;rotatable=0;points=[[0,0.5],[1,0.5]];portConstraint=eastwest;whiteSpace=wrap;html=1;" vertex="1" parent="4Gt7svRcilQnWDfZS3GQ-47">
          <mxGeometry y="70" width="140" height="50" as="geometry" />
        </mxCell>
        <mxCell id="4Gt7svRcilQnWDfZS3GQ-51" value="Deck" style="swimlane;fontStyle=1;align=center;verticalAlign=top;childLayout=stackLayout;horizontal=1;startSize=26;horizontalStack=0;resizeParent=1;resizeParentMax=0;resizeLast=0;collapsible=1;marginBottom=0;whiteSpace=wrap;html=1;" vertex="1" parent="WIyWlLk6GJQsqaUBKTNV-1">
          <mxGeometry x="1870" y="-1090" width="160" height="150" as="geometry">
            <mxRectangle x="1580" y="-1050" width="70" height="30" as="alternateBounds" />
          </mxGeometry>
        </mxCell>
        <mxCell id="4Gt7svRcilQnWDfZS3GQ-52" value="- cards: List&amp;lt;Card&amp;gt;" style="text;strokeColor=none;fillColor=none;align=left;verticalAlign=top;spacingLeft=4;spacingRight=4;overflow=hidden;rotatable=0;points=[[0,0.5],[1,0.5]];portConstraint=eastwest;whiteSpace=wrap;html=1;" vertex="1" parent="4Gt7svRcilQnWDfZS3GQ-51">
          <mxGeometry y="26" width="160" height="26" as="geometry" />
        </mxCell>
        <mxCell id="4Gt7svRcilQnWDfZS3GQ-53" value="" style="line;strokeWidth=1;fillColor=none;align=left;verticalAlign=middle;spacingTop=-1;spacingLeft=3;spacingRight=3;rotatable=0;labelPosition=right;points=[];portConstraint=eastwest;strokeColor=inherit;" vertex="1" parent="4Gt7svRcilQnWDfZS3GQ-51">
          <mxGeometry y="52" width="160" height="8" as="geometry" />
        </mxCell>
        <mxCell id="4Gt7svRcilQnWDfZS3GQ-54" value="+ Deck()&lt;div&gt;+ randomizeDeck(): void&lt;/div&gt;&lt;div&gt;+ drawCard(): Card&lt;/div&gt;&lt;div&gt;+ resetDeck(): void&lt;/div&gt;&lt;div&gt;+ initializeDeck(): void&lt;/div&gt;" style="text;strokeColor=none;fillColor=none;align=left;verticalAlign=top;spacingLeft=4;spacingRight=4;overflow=hidden;rotatable=0;points=[[0,0.5],[1,0.5]];portConstraint=eastwest;whiteSpace=wrap;html=1;" vertex="1" parent="4Gt7svRcilQnWDfZS3GQ-51">
          <mxGeometry y="60" width="160" height="90" as="geometry" />
        </mxCell>
        <mxCell id="4Gt7svRcilQnWDfZS3GQ-59" value="Player" style="swimlane;fontStyle=1;align=center;verticalAlign=top;childLayout=stackLayout;horizontal=1;startSize=26;horizontalStack=0;resizeParent=1;resizeParentMax=0;resizeLast=0;collapsible=1;marginBottom=0;whiteSpace=wrap;html=1;" vertex="1" parent="WIyWlLk6GJQsqaUBKTNV-1">
          <mxGeometry x="1071" y="-1090" width="290" height="340" as="geometry">
            <mxRectangle x="1160" y="-689" width="70" height="30" as="alternateBounds" />
          </mxGeometry>
        </mxCell>
        <mxCell id="4Gt7svRcilQnWDfZS3GQ-60" value="# name: String&lt;div&gt;# hand: List&amp;lt;Card&amp;gt;&lt;/div&gt;&lt;div&gt;# balance: int&lt;/div&gt;&lt;div&gt;# bet: int&lt;/div&gt;" style="text;strokeColor=none;fillColor=none;align=left;verticalAlign=top;spacingLeft=4;spacingRight=4;overflow=hidden;rotatable=0;points=[[0,0.5],[1,0.5]];portConstraint=eastwest;whiteSpace=wrap;html=1;" vertex="1" parent="4Gt7svRcilQnWDfZS3GQ-59">
          <mxGeometry y="26" width="290" height="74" as="geometry" />
        </mxCell>
        <mxCell id="4Gt7svRcilQnWDfZS3GQ-61" value="" style="line;strokeWidth=1;fillColor=none;align=left;verticalAlign=middle;spacingTop=-1;spacingLeft=3;spacingRight=3;rotatable=0;labelPosition=right;points=[];portConstraint=eastwest;strokeColor=inherit;" vertex="1" parent="4Gt7svRcilQnWDfZS3GQ-59">
          <mxGeometry y="100" width="290" height="8" as="geometry" />
        </mxCell>
        <mxCell id="4Gt7svRcilQnWDfZS3GQ-62" value="+ Player( name: String)&lt;div&gt;+ addCard( card: Card) : void&lt;/div&gt;&lt;div&gt;+ setBet( betAmount: int) : void&lt;/div&gt;&lt;div&gt;+ calculateHandValue(): int&lt;/div&gt;&lt;div&gt;+&lt;i&gt; takeTurn ( deck: Deck) : void&lt;/i&gt;&lt;/div&gt;&lt;div&gt;+ getHandString(): String&lt;/div&gt;&lt;div&gt;+ setHandFromString( handString: String) : boolean&lt;/div&gt;&lt;div&gt;- determineCardValue(( rank: String) : int&lt;/div&gt;&lt;div&gt;+ getName(): String&lt;/div&gt;&lt;div&gt;+ getHand(): List&amp;lt;Card&amp;gt;&lt;/div&gt;&lt;div&gt;+ getBalance(): int&lt;/div&gt;&lt;div&gt;+ getBet(): int&lt;/div&gt;&lt;div&gt;+ setBalance( balance: int) : void&lt;/div&gt;&lt;div&gt;+ resetHand(): void&lt;/div&gt;&lt;div&gt;+ adjustBalance( amount: int): void&lt;/div&gt;" style="text;strokeColor=none;fillColor=none;align=left;verticalAlign=top;spacingLeft=4;spacingRight=4;overflow=hidden;rotatable=0;points=[[0,0.5],[1,0.5]];portConstraint=eastwest;whiteSpace=wrap;html=1;" vertex="1" parent="4Gt7svRcilQnWDfZS3GQ-59">
          <mxGeometry y="108" width="290" height="232" as="geometry" />
        </mxCell>
        <mxCell id="l4S7q1OCt5ux5UeJ87Dz-19" style="edgeStyle=orthogonalEdgeStyle;rounded=0;orthogonalLoop=1;jettySize=auto;html=1;strokeWidth=1;startArrow=diamondThin;startFill=1;endArrow=none;endFill=0;endSize=6;startSize=10;exitX=0.5;exitY=0;exitDx=0;exitDy=0;entryX=0.5;entryY=0;entryDx=0;entryDy=0;" edge="1" parent="WIyWlLk6GJQsqaUBKTNV-1" target="39F5YlfIFEwG8_Svd10A-52">
          <mxGeometry relative="1" as="geometry">
            <mxPoint x="384.65999999999997" y="-120" as="sourcePoint" />
            <mxPoint x="384.65999999999997" y="75" as="targetPoint" />
          </mxGeometry>
        </mxCell>
        <mxCell id="l4S7q1OCt5ux5UeJ87Dz-48" value="Extends" style="endArrow=block;endSize=16;endFill=0;html=1;rounded=0;" edge="1" parent="WIyWlLk6GJQsqaUBKTNV-1" source="4Gt7svRcilQnWDfZS3GQ-38" target="4Gt7svRcilQnWDfZS3GQ-59">
          <mxGeometry width="160" relative="1" as="geometry">
            <mxPoint x="940" y="-1069.996666666667" as="sourcePoint" />
            <mxPoint x="1290" y="-1028.33" as="targetPoint" />
          </mxGeometry>
        </mxCell>
        <mxCell id="l4S7q1OCt5ux5UeJ87Dz-50" value="Extends" style="endArrow=block;endSize=16;endFill=0;html=1;rounded=0;" edge="1" parent="WIyWlLk6GJQsqaUBKTNV-1" source="4Gt7svRcilQnWDfZS3GQ-47" target="4Gt7svRcilQnWDfZS3GQ-59">
          <mxGeometry width="160" relative="1" as="geometry">
            <mxPoint x="930" y="-760" as="sourcePoint" />
            <mxPoint x="1090" y="-760" as="targetPoint" />
          </mxGeometry>
        </mxCell>
        <mxCell id="l4S7q1OCt5ux5UeJ87Dz-52" value="Extends" style="endArrow=block;endSize=16;endFill=0;html=1;rounded=0;" edge="1" parent="WIyWlLk6GJQsqaUBKTNV-1" source="4Gt7svRcilQnWDfZS3GQ-43" target="4Gt7svRcilQnWDfZS3GQ-59">
          <mxGeometry width="160" relative="1" as="geometry">
            <mxPoint x="1080" y="-830" as="sourcePoint" />
            <mxPoint x="1240" y="-830" as="targetPoint" />
          </mxGeometry>
        </mxCell>
        <mxCell id="l4S7q1OCt5ux5UeJ87Dz-63" value="" style="endArrow=diamondThin;endFill=0;endSize=24;html=1;rounded=0;exitX=-0.002;exitY=0.289;exitDx=0;exitDy=0;exitPerimeter=0;" edge="1" parent="WIyWlLk6GJQsqaUBKTNV-1" source="39F5YlfIFEwG8_Svd10A-45">
          <mxGeometry width="160" relative="1" as="geometry">
            <mxPoint x="1100" y="360" as="sourcePoint" />
            <mxPoint x="880" y="190" as="targetPoint" />
            <Array as="points">
              <mxPoint x="880" y="321" />
            </Array>
          </mxGeometry>
        </mxCell>
        <mxCell id="l4S7q1OCt5ux5UeJ87Dz-66" value="" style="endArrow=diamondThin;endFill=1;endSize=24;html=1;rounded=0;entryX=1;entryY=0;entryDx=0;entryDy=0;" edge="1" parent="WIyWlLk6GJQsqaUBKTNV-1" source="4Gt7svRcilQnWDfZS3GQ-4" target="4Gt7svRcilQnWDfZS3GQ-12">
          <mxGeometry width="160" relative="1" as="geometry">
            <mxPoint x="1610" y="460" as="sourcePoint" />
            <mxPoint x="1450" y="460" as="targetPoint" />
          </mxGeometry>
        </mxCell>
        <mxCell id="l4S7q1OCt5ux5UeJ87Dz-67" value="" style="endArrow=diamondThin;endFill=1;endSize=24;html=1;rounded=0;" edge="1" parent="WIyWlLk6GJQsqaUBKTNV-1" source="4Gt7svRcilQnWDfZS3GQ-8" target="4Gt7svRcilQnWDfZS3GQ-12">
          <mxGeometry width="160" relative="1" as="geometry">
            <mxPoint x="1390" y="460" as="sourcePoint" />
            <mxPoint x="1550" y="460" as="targetPoint" />
          </mxGeometry>
        </mxCell>
        <mxCell id="l4S7q1OCt5ux5UeJ87Dz-69" value="" style="endArrow=diamondThin;endFill=1;endSize=24;html=1;rounded=0;" edge="1" parent="WIyWlLk6GJQsqaUBKTNV-1" source="4Gt7svRcilQnWDfZS3GQ-0" target="4Gt7svRcilQnWDfZS3GQ-12">
          <mxGeometry width="160" relative="1" as="geometry">
            <mxPoint x="1110" y="600" as="sourcePoint" />
            <mxPoint x="1039" y="480" as="targetPoint" />
          </mxGeometry>
        </mxCell>
        <mxCell id="l4S7q1OCt5ux5UeJ87Dz-70" value="" style="endArrow=diamondThin;endFill=0;endSize=24;html=1;rounded=0;" edge="1" parent="WIyWlLk6GJQsqaUBKTNV-1" source="4Gt7svRcilQnWDfZS3GQ-12" target="39F5YlfIFEwG8_Svd10A-44">
          <mxGeometry width="160" relative="1" as="geometry">
            <mxPoint x="1000" y="610" as="sourcePoint" />
            <mxPoint x="1160" y="610" as="targetPoint" />
          </mxGeometry>
        </mxCell>
        <mxCell id="l4S7q1OCt5ux5UeJ87Dz-71" value="" style="endArrow=diamondThin;endFill=0;endSize=24;html=1;rounded=0;entryX=0.5;entryY=0;entryDx=0;entryDy=0;" edge="1" parent="WIyWlLk6GJQsqaUBKTNV-1" source="4Gt7svRcilQnWDfZS3GQ-22" target="39F5YlfIFEwG8_Svd10A-35">
          <mxGeometry width="160" relative="1" as="geometry">
            <mxPoint x="1200" y="-620" as="sourcePoint" />
            <mxPoint x="1360" y="-620" as="targetPoint" />
          </mxGeometry>
        </mxCell>
        <mxCell id="l4S7q1OCt5ux5UeJ87Dz-72" value="" style="endArrow=diamondThin;endFill=1;endSize=24;html=1;rounded=0;" edge="1" parent="WIyWlLk6GJQsqaUBKTNV-1" source="4Gt7svRcilQnWDfZS3GQ-59" target="4Gt7svRcilQnWDfZS3GQ-22">
          <mxGeometry width="160" relative="1" as="geometry">
            <mxPoint x="1120" y="-760" as="sourcePoint" />
            <mxPoint x="1280" y="-760" as="targetPoint" />
          </mxGeometry>
        </mxCell>
        <mxCell id="l4S7q1OCt5ux5UeJ87Dz-73" value="" style="endArrow=diamondThin;endFill=1;endSize=24;html=1;rounded=0;" edge="1" parent="WIyWlLk6GJQsqaUBKTNV-1" source="4Gt7svRcilQnWDfZS3GQ-51" target="4Gt7svRcilQnWDfZS3GQ-22">
          <mxGeometry width="160" relative="1" as="geometry">
            <mxPoint x="1330" y="-869" as="sourcePoint" />
            <mxPoint x="1475" y="-877" as="targetPoint" />
          </mxGeometry>
        </mxCell>
        <mxCell id="l4S7q1OCt5ux5UeJ87Dz-74" value="" style="endArrow=diamondThin;endFill=1;endSize=24;html=1;rounded=0;" edge="1" parent="WIyWlLk6GJQsqaUBKTNV-1" source="4Gt7svRcilQnWDfZS3GQ-26" target="4Gt7svRcilQnWDfZS3GQ-22">
          <mxGeometry width="160" relative="1" as="geometry">
            <mxPoint x="1340" y="-859" as="sourcePoint" />
            <mxPoint x="1485" y="-867" as="targetPoint" />
          </mxGeometry>
        </mxCell>
        <mxCell id="l4S7q1OCt5ux5UeJ87Dz-82" value="" style="endArrow=diamondThin;endFill=0;endSize=24;html=1;rounded=0;exitX=1;exitY=0;exitDx=0;exitDy=0;" edge="1" parent="WIyWlLk6GJQsqaUBKTNV-1" source="39F5YlfIFEwG8_Svd10A-48" target="39F5YlfIFEwG8_Svd10A-38">
          <mxGeometry width="160" relative="1" as="geometry">
            <mxPoint x="1440" y="-190" as="sourcePoint" />
            <mxPoint x="1665" y="-112" as="targetPoint" />
            <Array as="points" />
          </mxGeometry>
        </mxCell>
        <mxCell id="l4S7q1OCt5ux5UeJ87Dz-83" value="" style="endArrow=diamondThin;endFill=0;endSize=24;html=1;rounded=0;" edge="1" parent="WIyWlLk6GJQsqaUBKTNV-1" source="39F5YlfIFEwG8_Svd10A-48" target="39F5YlfIFEwG8_Svd10A-44">
          <mxGeometry width="160" relative="1" as="geometry">
            <mxPoint x="1217.8142076502731" as="sourcePoint" />
            <mxPoint x="1350" y="118" as="targetPoint" />
          </mxGeometry>
        </mxCell>
        <mxCell id="l4S7q1OCt5ux5UeJ87Dz-84" value="" style="endArrow=diamondThin;endFill=0;endSize=24;html=1;rounded=0;entryX=0.75;entryY=0;entryDx=0;entryDy=0;exitX=0;exitY=0.5;exitDx=0;exitDy=0;" edge="1" parent="WIyWlLk6GJQsqaUBKTNV-1" source="39F5YlfIFEwG8_Svd10A-36" target="39F5YlfIFEwG8_Svd10A-15">
          <mxGeometry width="160" relative="1" as="geometry">
            <mxPoint x="1328" y="188" as="sourcePoint" />
            <mxPoint x="970" y="-630" as="targetPoint" />
            <Array as="points">
              <mxPoint x="970" y="-500" />
            </Array>
          </mxGeometry>
        </mxCell>
        <mxCell id="l4S7q1OCt5ux5UeJ87Dz-85" value="Use" style="endArrow=open;endSize=12;dashed=1;html=1;rounded=0;" edge="1" parent="WIyWlLk6GJQsqaUBKTNV-1" source="39F5YlfIFEwG8_Svd10A-27" target="39F5YlfIFEwG8_Svd10A-31">
          <mxGeometry width="160" relative="1" as="geometry">
            <mxPoint x="390" y="-310" as="sourcePoint" />
            <mxPoint x="550" y="-310" as="targetPoint" />
          </mxGeometry>
        </mxCell>
        <mxCell id="l4S7q1OCt5ux5UeJ87Dz-88" style="edgeStyle=orthogonalEdgeStyle;rounded=0;orthogonalLoop=1;jettySize=auto;html=1;entryX=0.863;entryY=-0.013;entryDx=0;entryDy=0;entryPerimeter=0;" edge="1" parent="WIyWlLk6GJQsqaUBKTNV-1" source="39F5YlfIFEwG8_Svd10A-23" target="39F5YlfIFEwG8_Svd10A-15">
          <mxGeometry relative="1" as="geometry" />
        </mxCell>
        <mxCell id="l4S7q1OCt5ux5UeJ87Dz-89" value="" style="endArrow=diamondThin;endFill=0;endSize=24;html=1;rounded=0;" edge="1" parent="WIyWlLk6GJQsqaUBKTNV-1" source="39F5YlfIFEwG8_Svd10A-48" target="39F5YlfIFEwG8_Svd10A-16">
          <mxGeometry width="160" relative="1" as="geometry">
            <mxPoint x="1190" y="70" as="sourcePoint" />
            <mxPoint x="1350" y="70" as="targetPoint" />
          </mxGeometry>
        </mxCell>
      </root>
    </mxGraphModel>
  </diagram>
</mxfile>
